<svg xmlns="http://www.w3.org/2000/svg" viewBox="-5 -5 10 10"><defs><filter id="b"><feTurbulence baseFrequency="100" type="fractalNoise"/><feDisplacementMap in="SourceGraphic" scale="3"/></filter><filter id="c"><feGaussianBlur stdDeviation="10"/></filter><filter id="d"><feGaussianBlur stdDeviation=".9"/></filter><filter id="f"><feTurbulence baseFrequency="100" type="fractalNoise"/><feDisplacementMap in="SourceGraphic" scale="1"/></filter><filter id="g"><feGaussianBlur stdDeviation=".2"/></filter><filter id="h"><feGaussianBlur stdDeviation=".7"/></filter><mask id="a"><circle r="3" fill="#fff"/></mask><mask id="e"><circle cx="2" cy="2" r=".8" fill="#fff"/></mask></defs><g mask="url(#a)"><circle r="3" fill="#ccf"/><g filter="url(#b)"><circle cx="-6.8" cy="-6.8" r="7" fill="#FFFFE3" filter="url(#c)"/><circle cx="5" cy="5" r="7" fill="#99c2ff" filter="url(#d)"/></g></g><g transform="rotate(-20)"><circle cx="-3.069" cy="-.711" r=".041" fill="#d7f9f8"/><circle cx="-3.374" cy="-.575" r=".085" fill="#e5d4ef"/><circle cx="-3.648" cy="-.427" r=".071" fill="#d7f9f8"/><circle cx="-3.887" cy="-.268" r=".108" fill="#d7f9f8"/><circle cx="-4.089" cy="-.099" r=".055" fill="#99c2ff"/><circle cx="-4.252" cy=".077" r=".107" fill="#ffffea"/><circle cx="-4.375" cy=".259" r=".004" fill="#fbe0e0"/><circle cx="-4.457" cy=".446" r=".036" fill="#fff0d4"/><circle cx="-4.496" cy=".635" r=".113" fill="#ccf"/><circle cx="-4.493" cy=".825" r=".032" fill="#ffffea"/><circle cx="-4.447" cy="1.013" r=".115" fill="#ccf"/><circle cx="-4.359" cy="1.199" r=".082" fill="#ccf"/><circle cx="-4.23" cy="1.381" r=".055" fill="#e5d4ef"/><circle cx="-4.06" cy="1.556" r=".099" fill="#ffffea"/><circle cx="-3.852" cy="1.723" r=".048" fill="#ccf"/><circle cx="-3.608" cy="1.88" r=".116" fill="#d6e6ff"/><circle cx="-3.329" cy="2.027" r=".118" fill="#ccf"/><circle cx="-3.019" cy="2.161" r=".045" fill="#e5d4ef"/><circle cx="-2.68" cy="2.281" r=".074" fill="#d6e6ff"/><circle cx="-2.316" cy="2.387" r=".111" fill="#99c2ff"/><circle cx="-1.93" cy="2.477" r=".105" fill="#ffffea"/><circle cx="-1.526" cy="2.549" r=".086" fill="#fff0d4"/><circle cx="-1.107" cy="2.605" r=".069" fill="#e5d4ef"/><circle cx="-.678" cy="2.643" r=".103" fill="#ffffea"/><circle cx="-.242" cy="2.662" r=".07" fill="#fff0d4"/><circle cx=".196" cy="2.663" r=".119" fill="#fff0d4"/><circle cx=".633" cy="2.646" r=".006" fill="#ffffea"/><circle cx="1.063" cy="2.61" r=".117" fill="#e5d4ef"/><circle cx="1.483" cy="2.556" r=".019" fill="#e5d4ef"/><circle cx="1.889" cy="2.485" r=".029" fill="#e5d4ef"/><circle cx="2.277" cy="2.397" r=".028" fill="#99c2ff"/><circle cx="2.644" cy="2.293" r=".003" fill="#d6e6ff"/><circle cx="2.985" cy="2.174" r=".068" fill="#fbe0e0"/><circle cx="3.581" cy="1.896" r=".082" fill="#fff0d4"/><circle cx="3.829" cy="1.74" r=".087" fill="#fbe0e0"/><circle cx="4.04" cy="1.573" r=".026" fill="#ccf"/><circle cx="4.214" cy="1.399" r=".026" fill="#e5d4ef"/><circle cx="4.347" cy="1.218" r=".061" fill="#e5d4ef"/><circle cx="4.44" cy="1.033" r=".07" fill="#fff0d4"/><circle cx="4.49" cy=".844" r=".092" fill="#fff0d4"/><circle cx="4.498" cy=".654" r=".067" fill="#e5d4ef"/><circle cx="4.463" cy=".465" r=".022" fill="#ffffea"/><circle cx="4.386" cy=".278" r=".11" fill="#ccf"/><circle cx="4.267" cy=".096" r=".05" fill="#ccf"/><circle cx="4.108" cy="-.081" r=".083" fill="#d6e6ff"/><circle cx="3.91" cy="-.251" r=".103" fill="#fff0d4"/><circle cx="3.674" cy="-.411" r=".028" fill="#e5d4ef"/><circle cx="3.404" cy="-.56" r=".039" fill="#d6e6ff"/><circle cx="3.102" cy="-.698" r=".08" fill="#fff0d4"/></g><g mask="url(#e)"><circle r="8" fill="#99c2ff"/><g filter="url(#f)"><circle cx="1.2" cy="1.2" r="1.5" fill="#ccf" filter="url(#g)"/><circle cx=".3" cy=".3" r="1.5" fill="#FFFFE3" filter="url(#h)"/></g></g></svg>